# xmcd CD database file
#
# Track frame offsets:
#	150
#	17030
#	31555
#	49405
#	64476
#	88547
#	122930
#	153207
#	172286
#	192912
#	219664
#	242104
#	248761
#
# Disc length: 3575 seconds
#
# Revision: 0
# Processed by: cddbd v1.5.2PL0 Copyright (c) Steve Scherf et al.
# Submitted via: CDex 1.70beta2
#
DISCID=b60df50d
DTITLE=Harcsa Veronika - You Don't Know It's You
DYEAR=2007
DGENRE=Jazz
TTITLE0=Too Early
TTITLE1=What Is Our Love For
TTITLE2=Play Me, Play Me
TTITLE3=If You
TTITLE4=But I'm Not
TTITLE5=Maybe Neverending
TTITLE6=All That You Say
TTITLE7=Nothing's Left
TTITLE8=Losing Ground
TTITLE9=Luring
TTITLE10=Pirate Ballad
TTITLE11=Something New
TTITLE12=You Don't Know It's You
EXTD=YEAR: 2007
EXTT0=
EXTT1=
EXTT2=
EXTT3=
EXTT4=
EXTT5=
EXTT6=
EXTT7=
EXTT8=
EXTT9=
EXTT10=
EXTT11=
EXTT12=
PLAYORDER=
